<svg id="Layer_1" data-name="Layer 1" xmlns="http://www.w3.org/2000/svg" viewBox="0 0 120.67 20"><defs><style>.cls-1{fill:#fff;}</style></defs><title>logo</title><path class="cls-1" d="M27.88,18h-6v1a1,1,0,0,0,1,1h4a1,1,0,0,0,1-1Zm-10-11a7,7,0,0,0,3,5.74V15a1,1,0,0,0,1,1h6a1,1,0,0,0,1-1V12.74A7,7,0,1,0,17.88,7Z"/><path class="cls-1" d="M10.13,18h-6v1a1,1,0,0,0,1,1h4a1,1,0,0,0,1-1ZM.13,7a7,7,0,0,0,3,5.74V15a1,1,0,0,0,1,1h6a1,1,0,0,0,1-1V12.74A7,7,0,1,0,.13,7Zm2,0A5,5,0,1,1,10,11.1l-.85.6V14h-4V11.7l-.85-.6A5,5,0,0,1,2.13,7Z"/><path class="cls-1" d="M50.81,16.29A6.47,6.47,0,0,1,48.09,18a11.73,11.73,0,0,1-3.92.63,7,7,0,0,1-5.24-2A8.12,8.12,0,0,1,36.84,11V9.55a10,10,0,0,1,.87-4.3,6.47,6.47,0,0,1,2.49-2.83,7.05,7.05,0,0,1,3.75-1,7.4,7.4,0,0,1,4.84,1.43,6,6,0,0,1,2,4.26H46.92a3.16,3.16,0,0,0-.89-2,2.88,2.88,0,0,0-1.95-.6A2.63,2.63,0,0,0,41.74,5.8a6.86,6.86,0,0,0-.84,3.67v1a6.71,6.71,0,0,0,.85,3.75,3,3,0,0,0,2.69,1.25,3.38,3.38,0,0,0,2.34-.7V12.2H44V9.44h6.82Z"/><path class="cls-1" d="M66.65,12.7a6.1,6.1,0,0,1-.94,3.08,5.67,5.67,0,0,1-2.41,2.07,8.22,8.22,0,0,1-3.55.73,6.55,6.55,0,0,1-5.18-2.14,8.85,8.85,0,0,1-1.89-6.05V9.56a10.1,10.1,0,0,1,.85-4.29A6.47,6.47,0,0,1,56,2.43a6.86,6.86,0,0,1,3.71-1A7.2,7.2,0,0,1,64.59,3a6.32,6.32,0,0,1,2.1,4.41h-4a3,3,0,0,0-.77-2.19,3.16,3.16,0,0,0-2.2-.67A2.4,2.4,0,0,0,57.5,5.7a7.22,7.22,0,0,0-.73,3.59v1.18a8,8,0,0,0,.67,3.82,2.45,2.45,0,0,0,2.31,1.15,3.09,3.09,0,0,0,2.12-.65,2.77,2.77,0,0,0,.78-2.08Z"/><path class="cls-1" d="M75.93,12.64H69v-3h6.89Z"/><path class="cls-1" d="M89.46,11.27H83.14v4h7.47v3.09H79.11V1.66H90.63V4.77h-7.5V8.29h6.33Z"/><path class="cls-1" d="M98.47,7.21l2.73-5.55h4.6l-4.67,8.28,4.79,8.41h-4.64L98.47,12.7l-2.81,5.65H91l4.78-8.41L91.16,1.66h4.58Z"/><path class="cls-1" d="M111.25,12.69v5.66h-4V1.66h6.66a7.76,7.76,0,0,1,3.39.7,5.32,5.32,0,0,1,2.28,2,5.48,5.48,0,0,1,.81,3,4.83,4.83,0,0,1-1.75,3.9,7.26,7.26,0,0,1-4.8,1.46Zm0-3.11h2.64A2.49,2.49,0,0,0,115.67,9a2.17,2.17,0,0,0,.61-1.65,2.69,2.69,0,0,0-.63-1.87,2.23,2.23,0,0,0-1.72-.71h-2.68Z"/></svg>